<svg width="281" height="123" viewBox="0 0 281 123" fill="none" xmlns="http://www.w3.org/2000/svg">
<g clip-path="url(#clip0_382_2728)">
<path d="M109.79 27.77C109.79 27.77 109.79 21.77 145.79 16.77C145.79 16.77 160.88 15.65 165.83 14.21C165.83 14.21 205.79 -0.229961 229.79 47.77C229.79 47.77 250.79 90.77 205.79 93.77C205.79 93.77 122.79 100.77 98.7901 89.77C74.7901 78.77 109.79 27.77 109.79 27.77Z" fill="white"/>
<path d="M210.72 11.8101C207.81 7.36008 201.87 6.53008 201.67 6.50008C193.04 5.06008 188.94 10.7401 188 13.9101C186.45 18.5701 189.8 22.3101 191.79 23.6401C191.83 23.6701 191.88 23.7001 191.93 23.7201C196.64 26.1901 200.61 27.4301 203.79 27.4301C205.45 27.4301 206.9 27.0901 208.12 26.4101C211.03 24.8001 211.61 21.8501 211.71 21.0801C212.72 17.4601 212.39 14.3401 210.73 11.8101H210.72Z" fill="black"/>
<path d="M152.45 97.4598C125.59 97.4598 107.35 95.3298 98.17 91.1298C93.79 89.1198 90.93 85.7598 89.65 81.1498C84.63 63.0098 105.99 30.7198 108.38 27.1898C109.06 24.6998 114.58 19.5898 145.59 15.2798C145.83 15.2598 160.67 14.1398 165.42 12.7598C165.75 12.6398 175.85 9.06977 189.09 11.5098C211.17 15.5698 224.14 33.0998 231.14 47.0998C231.56 47.9498 241.1 67.8598 232.88 82.0598C228.32 89.9398 219.24 94.3798 205.9 95.2698C205.72 95.2898 184.85 97.0298 161.32 97.3998C158.27 97.4498 155.31 97.4698 152.45 97.4698V97.4598ZM111.29 27.9898V28.2298L111.03 28.6098C110.8 28.9498 87.71 62.8898 92.54 80.3398C93.59 84.1198 95.84 86.7498 99.42 88.3998C122.79 99.1098 204.84 92.3398 205.67 92.2698C217.98 91.4498 226.25 87.5098 230.28 80.5598C237.71 67.7498 228.54 48.6198 228.45 48.4298C218.73 28.9798 205.3 17.5498 188.55 14.4698C176.1 12.1798 166.45 15.5898 166.35 15.6198C161.21 17.1098 146.53 18.2198 145.91 18.2698C115.77 22.4598 111.7 27.3598 111.3 27.9998L111.29 27.9898Z" fill="black"/>
<mask id="mask0_382_2728" style="mask-type:luminance" maskUnits="userSpaceOnUse" x="90" y="12" width="145" height="84">
<path d="M109.79 27.77C109.79 27.77 109.79 21.77 145.79 16.77C145.79 16.77 160.88 15.65 165.83 14.21C165.83 14.21 205.79 -0.229961 229.79 47.77C229.79 47.77 250.79 90.77 205.79 93.77C205.79 93.77 122.79 100.77 98.7901 89.77C74.7901 78.77 109.79 27.77 109.79 27.77Z" fill="white"/>
</mask>
<g mask="url(#mask0_382_2728)">
<path d="M121.23 0.540039L101.3 101.6L162.82 112.55C162.82 112.55 179.75 33.95 137.23 13.63L121.23 0.540039Z" fill="black"/>
</g>
<path d="M63.7899 48.7698C63.7899 48.7698 48.7899 60.7698 55.7899 78.7698C55.7899 78.7698 63.7899 96.7698 99.7899 92.7698C99.7899 92.7698 152.79 87.7698 152.79 52.7698C152.79 52.7698 153.79 8.76976 100.79 14.7698C100.79 14.7698 74.7899 16.7698 66.7899 41.7698C66.7899 41.7698 64.7899 47.7698 63.7899 48.7698Z" fill="white"/>
<path d="M89.7199 94.8499C61.6599 94.8499 54.7299 80.0699 54.4199 79.3699C47.3999 61.3299 61.3599 48.8499 62.7499 47.6799C63.2599 47.0399 64.4999 43.8999 65.3699 41.2899C73.5799 15.6399 100.41 13.2899 100.68 13.2699C118.48 11.2499 132.29 14.5799 141.69 23.1699C154.55 34.9199 154.31 52.0699 154.29 52.7999C154.29 67.7299 144.81 79.6599 126.88 87.2699C113.57 92.9199 100.49 94.2099 99.9399 94.2599C96.2599 94.6699 92.8599 94.8499 89.7199 94.8499ZM64.7299 49.9299C64.1399 50.3999 50.6899 61.4999 57.1899 78.2199C57.2399 78.3199 65.3099 95.0899 99.6299 91.2699C100.17 91.2199 151.3 85.9799 151.3 52.7599C151.3 52.5599 151.5 36.1699 139.65 25.3599C130.92 17.3999 117.91 14.3299 100.97 16.2499C99.8999 16.3399 75.8199 18.4999 68.2299 42.2199C67.5899 44.1399 65.9899 48.6999 64.8599 49.8199L64.7399 49.9299H64.7299Z" fill="black"/>
<path d="M137.1 6.7598C133.55 1.3498 126.3 0.319798 126.04 0.289798C112.89 -1.9002 109.39 9.2298 109.37 9.2998C107.5 14.9098 111.56 19.4198 113.96 21.0198C114 21.0498 114.05 21.0798 114.1 21.0998C119.94 24.1598 124.83 25.6898 128.73 25.6898C130.74 25.6898 132.49 25.2798 133.96 24.4698C137.5 22.5098 138.16 18.9098 138.26 18.0598C139.5 13.6398 139.1 9.8398 137.09 6.7598H137.1Z" fill="black"/>
<path d="M69.9599 31.8299C67.5299 28.7899 64.8799 27.4099 62.0599 27.6999C56.3999 28.2999 52.5999 35.7699 52.4199 36.1299C46.3499 49.2899 53.8099 54.3399 54.9699 55.0199C56.0299 55.7699 57.1699 56.1399 58.3199 56.1399C58.8799 56.1399 59.4499 56.0499 60.0199 55.8699C65.8199 53.9899 69.7799 42.6899 70.2099 41.4199C72.4199 34.9699 70.1899 32.0899 69.9599 31.8199V31.8299Z" fill="black"/>
<path d="M102.15 94.3098C102.15 94.3098 99.7101 77.1298 127.09 72.3698C127.09 72.3698 157.16 68.1098 150.02 91.9098C150.02 91.9098 148.48 97.6898 136.97 100.92C136.97 100.92 101.89 111 102.15 94.3098Z" fill="black"/>
<path d="M102.18 49.82C101.55 48.69 100.56 48.37 100.37 48.32C100.24 48.28 100.11 48.27 99.9699 48.27C95.9099 48.27 91.4799 53.44 90.9899 54.03C90.9599 54.07 90.9199 54.11 90.8899 54.16C90.0199 55.47 90.2799 56.57 90.5099 57.12C91.3899 59.15 94.4499 59.8 95.3699 59.95C95.4499 59.96 95.5299 59.97 95.6199 59.97C98.6899 59.97 99.9399 58.88 100.16 58.66C101.22 57.6 102.1 54.77 102.35 53.93C102.83 52.28 102.77 50.9 102.18 49.83V49.82Z" fill="black"/>
<path d="M95.1 70.5298C94.02 70.5298 93.25 70.1698 93.13 70.1098C92.39 69.7398 92.09 68.8398 92.46 68.0998C92.83 67.3698 93.71 67.0698 94.45 67.4198C94.51 67.4498 95.15 67.6998 95.88 67.3598C96.87 66.8998 97.75 65.4698 98.36 63.3598C98.51 62.8498 98.91 62.4498 99.43 62.3198C99.94 62.1898 100.49 62.3398 100.87 62.7098C100.87 62.7098 102.44 64.2098 104.16 63.9698C105.36 63.7998 106.48 62.8098 107.51 61.0198C107.92 60.2998 108.84 60.0498 109.56 60.4598C110.28 60.8698 110.53 61.7898 110.12 62.5098C108.61 65.1598 106.73 66.6498 104.55 66.9498C102.99 67.1598 101.6 66.6898 100.57 66.1298C99.7 68.1398 98.53 69.4798 97.06 70.1198C96.36 70.4298 95.69 70.5298 95.12 70.5298H95.1Z" fill="black"/>
<path d="M121.02 38.8998C118.3 34.6498 115.2 32.2298 111.81 31.7298C107.79 31.1398 104.93 33.5298 104.85 33.5998C100.09 37.4098 101.86 43.0198 103.49 45.5298C104.78 47.9598 108.65 49.0298 109.42 49.2298C109.54 49.2598 109.66 49.2698 109.78 49.2698C110.9 49.2698 112.93 50.3398 114.01 51.0598C115.74 52.0998 117.32 52.4798 118.69 52.4798C121.17 52.4798 122.98 51.2198 123.8 50.2198C123.86 50.1398 123.92 50.0598 123.96 49.9698C126.15 45.8298 121.73 39.8298 121.01 38.8998H121.02Z" fill="black"/>
<path d="M210.01 56.8898C210.01 56.8898 230.23 55.3298 233.16 73.0998C233.16 73.0998 238.25 98.5198 201.64 100.56C201.64 100.56 180.44 103.86 174.41 94.4898C174.41 94.4898 169.75 82.6698 183.99 74.5398C183.99 74.5398 193.02 69.9298 195.77 65.0298C195.77 65.0298 203.73 56.5998 210.01 56.8898Z" fill="black"/>
<path d="M89.19 51.17C88.36 48.41 85.3199 43.62 79.5999 44.75C79.4499 44.77 75.9099 45.39 73.8499 48.73C72.1199 51.54 71.97 55.31 73.41 59.94C73.65 61.06 75.3199 68.03 79.7399 68.98C79.8399 69 79.9299 69.01 80.0299 69.01C80.0499 69.01 80.0699 69.01 80.0999 69.01C82.0699 69.01 85.9 67.62 86.76 62.24C86.9 61 87.39 58.91 88.04 58.14C88.12 58.05 88.1899 57.94 88.2399 57.83C88.5799 57.14 90.1899 53.63 89.1999 51.16L89.19 51.17Z" fill="black"/>
<path d="M7 122.01H3C1.34 122.01 0 120.67 0 119.01C0 117.35 1.34 116.01 3 116.01H7C8.66 116.01 10 117.35 10 119.01C10 120.67 8.66 122.01 7 122.01Z" fill="black"/>
<path d="M251.09 122.01H243.46C241.8 122.01 240.46 120.67 240.46 119.01C240.46 117.35 241.8 116.01 243.46 116.01H251.09C252.75 116.01 254.09 117.35 254.09 119.01C254.09 120.67 252.75 122.01 251.09 122.01ZM220.58 122.01H212.95C211.29 122.01 209.95 120.67 209.95 119.01C209.95 117.35 211.29 116.01 212.95 116.01H220.58C222.24 116.01 223.58 117.35 223.58 119.01C223.58 120.67 222.24 122.01 220.58 122.01ZM190.07 122.01H182.44C180.78 122.01 179.44 120.67 179.44 119.01C179.44 117.35 180.78 116.01 182.44 116.01H190.07C191.73 116.01 193.07 117.35 193.07 119.01C193.07 120.67 191.73 122.01 190.07 122.01ZM159.56 122.01H151.93C150.27 122.01 148.93 120.67 148.93 119.01C148.93 117.35 150.27 116.01 151.93 116.01H159.56C161.22 116.01 162.56 117.35 162.56 119.01C162.56 120.67 161.22 122.01 159.56 122.01ZM129.05 122.01H121.42C119.76 122.01 118.42 120.67 118.42 119.01C118.42 117.35 119.76 116.01 121.42 116.01H129.05C130.71 116.01 132.05 117.35 132.05 119.01C132.05 120.67 130.71 122.01 129.05 122.01ZM98.5399 122.01H90.9099C89.2499 122.01 87.9099 120.67 87.9099 119.01C87.9099 117.35 89.2499 116.01 90.9099 116.01H98.5399C100.2 116.01 101.54 117.35 101.54 119.01C101.54 120.67 100.2 122.01 98.5399 122.01ZM68.0299 122.01H60.3999C58.7399 122.01 57.3999 120.67 57.3999 119.01C57.3999 117.35 58.7399 116.01 60.3999 116.01H68.0299C69.6899 116.01 71.0299 117.35 71.0299 119.01C71.0299 120.67 69.6899 122.01 68.0299 122.01ZM37.5199 122.01H29.8899C28.2299 122.01 26.8899 120.67 26.8899 119.01C26.8899 117.35 28.2299 116.01 29.8899 116.01H37.5199C39.1799 116.01 40.5199 117.35 40.5199 119.01C40.5199 120.67 39.1799 122.01 37.5199 122.01Z" fill="black"/>
<path d="M277.97 122.01H273.97C272.31 122.01 270.97 120.67 270.97 119.01C270.97 117.35 272.31 116.01 273.97 116.01H277.97C279.63 116.01 280.97 117.35 280.97 119.01C280.97 120.67 279.63 122.01 277.97 122.01Z" fill="black"/>
<path d="M277.97 97.0098H3C1.34 97.0098 0 95.6698 0 94.0098C0 92.3498 1.34 91.0098 3 91.0098H277.97C279.63 91.0098 280.97 92.3498 280.97 94.0098C280.97 95.6698 279.63 97.0098 277.97 97.0098Z" fill="black"/>
</g>
<defs>
<clipPath id="clip0_382_2728">
<rect width="280.97" height="122.01" fill="white"/>
</clipPath>
</defs>
</svg>
