<svg width="32" height="32" viewBox="0 0 32 32" fill="none" xmlns="http://www.w3.org/2000/svg">
<circle cx="16" cy="16" r="16" fill="#EFF1FF"/>
<path fill-rule="evenodd" clip-rule="evenodd" d="M9.95996 7.41333C9.40767 7.41333 8.95996 7.86105 8.95996 8.41333V23.5418C8.95996 24.0941 9.40768 24.5418 9.95996 24.5418H13.2848C13.837 24.5418 14.2848 24.0941 14.2848 23.5418V8.41333C14.2848 7.86104 13.837 7.41333 13.2848 7.41333H9.95996ZM15.8448 7.41333C15.2925 7.41333 14.8448 7.86105 14.8448 8.41333V23.5418C14.8448 24.0941 15.2925 24.5418 15.8448 24.5418H19.1696C19.7219 24.5418 20.1696 24.0941 20.1696 23.5418V8.41333C20.1696 7.86104 19.7219 7.41333 19.1696 7.41333H15.8448ZM23.6157 17.5375C23.6157 17.2496 23.3823 17.0162 23.0944 17.0162C22.8065 17.0162 22.5731 17.2496 22.5731 17.5375V20.3114H21.4162L23.0951 22.6196L24.7726 20.3114H23.6157V17.5375ZM24.7726 11.6452L23.0951 9.33553L21.4162 11.6452H22.5731V14.419C22.5731 14.707 22.8065 14.9404 23.0944 14.9404C23.3823 14.9404 23.6157 14.707 23.6157 14.419V11.6452H24.7726Z" fill="#4E48F1"/>
</svg>
