<svg width="48" height="48" viewBox="0 0 48 48" fill="none" xmlns="http://www.w3.org/2000/svg">
<g clip-path="url(#clip0_401_2005)">
<path d="M23.7506 9.40419L23.751 9.40416L23.7513 9.40414L23.7513 9.40413L23.7599 9.40347L23.7688 9.40246C29.8929 8.70942 34.4137 9.46518 37.7534 10.9543C41.0898 12.442 43.2801 14.6761 44.7232 16.9968C46.1696 19.3227 46.8677 21.7404 47.2031 23.5829C47.3706 24.5028 47.4469 25.2754 47.4814 25.8158C47.4986 26.0859 47.5054 26.2977 47.5079 26.4404C47.5091 26.5118 47.5093 26.5658 47.5092 26.6013L47.5089 26.6404L47.5087 26.6491L47.5087 26.6505L47.5086 26.6505V26.6619C47.5086 34.5253 41.5685 39.0729 35.4302 41.679C32.3747 42.9762 29.3134 43.7712 27.0121 44.2417C25.8626 44.4767 24.9053 44.6303 24.2367 44.725C23.9024 44.7723 23.6405 44.8049 23.4629 44.8255C23.3741 44.8359 23.3065 44.8432 23.2614 44.848L23.211 44.8531L23.1988 44.8543L23.1961 44.8546L23.1956 44.8547L23.1956 44.8546L23.1874 44.8555C17.7085 45.4643 13.6594 44.9673 10.701 44.0454C3.1296 41.6824 0.313328 32.3864 5.47712 26.4371L5.74927 26.1423C6.84447 24.9558 7.65567 23.5427 8.18098 22.0332L8.18109 22.0333L8.18437 22.0231C8.21851 21.9179 8.2469 21.8327 8.26666 21.7741L8.28944 21.7071L8.29528 21.6901L8.2967 21.686L8.29701 21.6851L8.29706 21.685L8.29721 21.685L8.30103 21.6731C10.1172 15.9963 13.9709 12.9341 17.3876 11.283C19.0982 10.4564 20.6961 9.98566 21.8657 9.72187C22.45 9.59009 22.9259 9.51028 23.2537 9.4636C23.4176 9.44026 23.5443 9.42521 23.6289 9.4161C23.6711 9.41154 23.7029 9.40846 23.7234 9.40657L23.7458 9.40459L23.7506 9.40419Z" fill="white" stroke="black"/>
<path d="M40.6682 5.1574C39.0144 2.62742 35.6256 2.1516 35.5038 2.13419C29.3587 1.10711 27.7223 6.31214 27.7165 6.34115C26.8461 8.95817 28.7378 11.0704 29.8635 11.8189C29.8868 11.8305 29.9042 11.8479 29.9274 11.8537C32.6546 13.2812 34.9409 14.0007 36.763 14.0007C37.703 14.0007 38.5212 13.8092 39.2117 13.4263C40.8655 12.5094 41.173 10.8266 41.2252 10.4321C41.8055 8.3663 41.6198 6.59067 40.6798 5.1516L40.6682 5.1574Z" fill="black"/>
<path d="M24.3567 25.281C24.0607 24.753 23.6023 24.6021 23.5095 24.5789C23.4514 24.5615 23.3876 24.5557 23.3238 24.5557C21.4263 24.5557 19.3605 26.9696 19.1284 27.2481C19.111 27.2655 19.0994 27.2887 19.082 27.3061C18.6758 27.9154 18.7977 28.4319 18.9079 28.6872C19.3199 29.633 20.7474 29.9406 21.1768 30.0102C21.2174 30.016 21.2522 30.0218 21.2928 30.0218C22.7319 30.0218 23.3122 29.5112 23.4108 29.4125C23.904 28.9193 24.316 27.5963 24.4321 27.2017C24.6584 26.4299 24.6294 25.7858 24.3509 25.2868L24.3567 25.281Z" fill="black"/>
<path d="M21.0433 34.9599C20.5385 34.9599 20.1787 34.7916 20.1207 34.7626C19.7726 34.5885 19.6333 34.1707 19.8074 33.8226C19.9814 33.4802 20.3934 33.341 20.7358 33.5034C20.7648 33.515 21.0608 33.6369 21.4031 33.4744C21.8673 33.2597 22.2793 32.5924 22.5637 31.6059C22.6333 31.368 22.819 31.1823 23.0627 31.1185C23.3006 31.0547 23.5559 31.1243 23.7358 31.3042C23.7358 31.3042 24.4669 32.0063 25.2735 31.8961C25.8364 31.8206 26.3586 31.3564 26.8402 30.5208C27.0317 30.1843 27.4611 30.0682 27.7977 30.2597C28.1343 30.4512 28.2503 30.8806 28.0588 31.2172C27.3509 32.4531 26.4747 33.1553 25.4592 33.2887C24.7281 33.3874 24.0782 33.1669 23.6023 32.9058C23.1961 33.8458 22.6449 34.4667 21.9602 34.7684C21.6352 34.9135 21.3219 34.9599 21.0549 34.9599H21.0433Z" fill="black"/>
<path d="M33.1595 20.1802C31.8887 18.1899 30.438 17.0642 28.8597 16.8321C26.9796 16.5535 25.645 17.6735 25.6102 17.7025C23.3877 19.4839 24.2117 22.1067 24.9777 23.2789C25.5811 24.4162 27.3916 24.9152 27.7514 25.0081C27.8094 25.0197 27.8616 25.0313 27.9196 25.0313C28.4419 25.0313 29.3935 25.5303 29.8926 25.8669C30.6991 26.3485 31.4361 26.5342 32.0802 26.5342C33.2349 26.5342 34.0879 25.9481 34.4651 25.4781C34.4941 25.4433 34.5173 25.4027 34.5405 25.362C35.5676 23.4297 33.496 20.627 33.1595 20.1918V20.1802Z" fill="black"/>
<path d="M18.2871 25.9074C17.8983 24.6134 16.4767 22.3794 13.8016 22.9074C13.732 22.919 12.0782 23.2034 11.115 24.7643C10.3084 26.0757 10.2388 27.8397 10.9061 30.0041C11.0163 30.5264 11.7997 33.7817 13.8597 34.2285C13.9061 34.2401 13.9525 34.2459 13.9989 34.2459C14.0105 34.2459 14.0221 34.2459 14.0279 34.2459C14.9448 34.2459 16.7378 33.596 17.144 31.0834C17.2078 30.5032 17.4399 29.5283 17.7417 29.1686C17.7765 29.1221 17.8113 29.0757 17.8345 29.0235C17.9912 28.7043 18.7455 27.0622 18.2813 25.9074H18.2871Z" fill="black"/>
<path d="M5.13823 26.0583C5.21947 25.9655 5.29491 25.8784 5.37034 25.7972C6.41483 24.6657 7.19239 23.3194 7.69723 21.863C7.77266 21.6483 7.81328 21.5148 7.81328 21.5148C8.29491 20.0061 8.9216 18.6831 9.63533 17.5109C9.49607 17.1221 9.33359 16.9132 9.29297 16.8668C8.15564 15.451 6.91386 14.8011 5.60245 14.9403C2.95642 15.2189 1.18079 18.7121 1.09955 18.8804C-1.73798 25.0312 1.74945 27.3871 2.2891 27.7063C2.7185 28.008 3.17112 28.1705 3.63533 28.2111C4.03572 27.4568 4.52895 26.7314 5.12663 26.0467L5.13823 26.0583Z" fill="black"/>
</g>
<defs>
<clipPath id="clip0_401_2005">
<rect width="48" height="48" fill="white"/>
</clipPath>
</defs>
</svg>
