<svg width="281" height="123" viewBox="0 0 281 123" fill="none" xmlns="http://www.w3.org/2000/svg">
<g clip-path="url(#clip0_416_2034)">
<path d="M109.79 27.77C109.79 27.77 109.79 21.77 145.79 16.77C145.79 16.77 160.88 15.65 165.83 14.21C165.83 14.21 205.79 -0.229961 229.79 47.77C229.79 47.77 250.79 90.77 205.79 93.77C205.79 93.77 122.79 100.77 98.7901 89.77C74.7901 78.77 109.79 27.77 109.79 27.77Z" fill="white"/>
<path d="M210.72 11.8101C207.81 7.36008 201.87 6.53008 201.67 6.50008C193.04 5.06008 188.94 10.7401 188 13.9101C186.45 18.5701 189.8 22.3101 191.79 23.6401C191.83 23.6701 191.88 23.7001 191.93 23.7201C196.64 26.1901 200.61 27.4301 203.79 27.4301C205.45 27.4301 206.9 27.0901 208.12 26.4101C211.03 24.8001 211.61 21.8501 211.71 21.0801C212.72 17.4601 212.39 14.3401 210.73 11.8101H210.72Z" fill="black"/>
<path d="M152.45 97.46C125.59 97.46 107.35 95.33 98.17 91.13C93.79 89.12 90.93 85.76 89.65 81.15C84.63 63.01 105.99 30.72 108.38 27.19C109.06 24.7 114.58 19.59 145.59 15.28C145.83 15.26 160.67 14.14 165.42 12.76C165.75 12.64 175.85 9.07002 189.09 11.51C211.17 15.57 224.14 33.1 231.14 47.1C231.56 47.95 241.1 67.86 232.88 82.06C228.32 89.94 219.24 94.38 205.9 95.27C205.72 95.29 184.85 97.03 161.32 97.4C158.27 97.45 155.31 97.47 152.45 97.47V97.46ZM111.29 27.99V28.23L111.03 28.61C110.8 28.95 87.71 62.89 92.54 80.34C93.59 84.12 95.84 86.75 99.42 88.4C122.79 99.11 204.84 92.34 205.67 92.27C217.98 91.45 226.25 87.51 230.28 80.56C237.71 67.75 228.54 48.62 228.45 48.43C218.73 28.98 205.3 17.55 188.55 14.47C176.1 12.18 166.45 15.59 166.35 15.62C161.21 17.11 146.53 18.22 145.91 18.27C115.77 22.46 111.7 27.36 111.3 28L111.29 27.99Z" fill="black"/>
<mask id="mask0_416_2034" style="mask-type:luminance" maskUnits="userSpaceOnUse" x="90" y="12" width="145" height="84">
<path d="M109.79 27.77C109.79 27.77 109.79 21.77 145.79 16.77C145.79 16.77 160.88 15.65 165.83 14.21C165.83 14.21 205.79 -0.229961 229.79 47.77C229.79 47.77 250.79 90.77 205.79 93.77C205.79 93.77 122.79 100.77 98.7901 89.77C74.7901 78.77 109.79 27.77 109.79 27.77Z" fill="white"/>
</mask>
<g mask="url(#mask0_416_2034)">
<path d="M121.23 0.540039L101.3 101.6L162.82 112.55C162.82 112.55 179.75 33.95 137.23 13.63L121.23 0.540039Z" fill="black"/>
</g>
<path d="M63.7899 48.77C63.7899 48.77 48.7899 60.77 55.7899 78.77C55.7899 78.77 63.7899 96.77 99.7899 92.77C99.7899 92.77 152.79 87.77 152.79 52.77C152.79 52.77 153.79 8.77001 100.79 14.77C100.79 14.77 74.7899 16.77 66.7899 41.77C66.7899 41.77 64.7899 47.77 63.7899 48.77Z" fill="white"/>
<path d="M89.7199 94.8499C61.6599 94.8499 54.7299 80.0699 54.4199 79.3699C47.3999 61.3299 61.3599 48.8499 62.7499 47.6799C63.2599 47.0399 64.4999 43.8999 65.3699 41.2899C73.5799 15.6399 100.41 13.2899 100.68 13.2699C118.48 11.2499 132.29 14.5799 141.69 23.1699C154.55 34.9199 154.31 52.0699 154.29 52.7999C154.29 67.7299 144.81 79.6599 126.88 87.2699C113.57 92.9199 100.49 94.2099 99.9399 94.2599C96.2599 94.6699 92.8599 94.8499 89.7199 94.8499ZM64.7299 49.9299C64.1399 50.3999 50.6899 61.4999 57.1899 78.2199C57.2399 78.3199 65.3099 95.0899 99.6299 91.2699C100.17 91.2199 151.3 85.9799 151.3 52.7599C151.3 52.5599 151.5 36.1699 139.65 25.3599C130.92 17.3999 117.91 14.3299 100.97 16.2499C99.8999 16.3399 75.8199 18.4999 68.2299 42.2199C67.5899 44.1399 65.9899 48.6999 64.8599 49.8199L64.7399 49.9299H64.7299Z" fill="black"/>
<path d="M137.1 6.76004C133.55 1.35004 126.3 0.320043 126.04 0.290043C112.89 -1.89996 109.39 9.23004 109.37 9.30004C107.5 14.91 111.56 19.42 113.96 21.02C114 21.05 114.05 21.08 114.1 21.1C119.94 24.16 124.83 25.69 128.73 25.69C130.74 25.69 132.49 25.28 133.96 24.47C137.5 22.51 138.16 18.91 138.26 18.06C139.5 13.64 139.1 9.84004 137.09 6.76004H137.1Z" fill="black"/>
<path d="M69.9604 31.8299C67.5304 28.7899 64.8804 27.4099 62.0604 27.6999C56.4004 28.2999 52.6004 35.7699 52.4204 36.1299C46.3504 49.2899 53.8104 54.3399 54.9704 55.0199C56.0304 55.7699 57.1704 56.1399 58.3204 56.1399C58.8804 56.1399 59.4504 56.0499 60.0204 55.8699C65.8204 53.9899 69.7804 42.6899 70.2104 41.4199C72.4204 34.9699 70.1904 32.0899 69.9604 31.8199V31.8299Z" fill="black"/>
<path d="M102.15 94.31C102.15 94.31 99.7096 77.13 127.09 72.37C127.09 72.37 157.16 68.11 150.02 91.91C150.02 91.91 148.48 97.69 136.97 100.92C136.97 100.92 101.89 111 102.15 94.31Z" fill="black"/>
<path d="M102.18 49.82C101.55 48.69 100.56 48.37 100.37 48.32C100.24 48.28 100.11 48.27 99.9699 48.27C95.9099 48.27 91.4799 53.44 90.9899 54.03C90.9599 54.07 90.9199 54.11 90.8899 54.16C90.0199 55.47 90.2799 56.57 90.5099 57.12C91.3899 59.15 94.4499 59.8 95.3699 59.95C95.4499 59.96 95.5299 59.97 95.6199 59.97C98.6899 59.97 99.9399 58.88 100.16 58.66C101.22 57.6 102.1 54.77 102.35 53.93C102.83 52.28 102.77 50.9 102.18 49.83V49.82Z" fill="black"/>
<path d="M95.1002 70.5301C94.0202 70.5301 93.2502 70.1701 93.1302 70.1101C92.3902 69.7401 92.0902 68.8401 92.4602 68.1001C92.8302 67.3701 93.7102 67.0701 94.4502 67.4201C94.5102 67.4501 95.1502 67.7001 95.8802 67.3601C96.8702 66.9001 97.7502 65.4701 98.3602 63.3601C98.5102 62.8501 98.9102 62.4501 99.4302 62.3201C99.9402 62.1901 100.49 62.3401 100.87 62.7101C100.87 62.7101 102.44 64.2101 104.16 63.9701C105.36 63.8001 106.48 62.8101 107.51 61.0201C107.92 60.3001 108.84 60.0501 109.56 60.4601C110.28 60.8701 110.53 61.7901 110.12 62.5101C108.61 65.1601 106.73 66.6501 104.55 66.9501C102.99 67.1601 101.6 66.6901 100.57 66.1301C99.7002 68.1401 98.5302 69.4801 97.0602 70.1201C96.3602 70.4301 95.6902 70.5301 95.1202 70.5301H95.1002Z" fill="black"/>
<path d="M121.02 38.9001C118.3 34.6501 115.2 32.2301 111.81 31.7301C107.79 31.1401 104.93 33.5301 104.85 33.6001C100.09 37.4101 101.86 43.0201 103.49 45.5301C104.78 47.9601 108.65 49.0301 109.42 49.2301C109.54 49.2601 109.66 49.2701 109.78 49.2701C110.9 49.2701 112.93 50.3401 114.01 51.0601C115.74 52.1001 117.32 52.4801 118.69 52.4801C121.17 52.4801 122.98 51.2201 123.8 50.2201C123.86 50.1401 123.92 50.0601 123.96 49.9701C126.15 45.8301 121.73 39.8301 121.01 38.9001H121.02Z" fill="black"/>
<path d="M210.01 56.89C210.01 56.89 230.23 55.33 233.16 73.1C233.16 73.1 238.25 98.52 201.64 100.56C201.64 100.56 180.44 103.86 174.41 94.49C174.41 94.49 169.75 82.67 183.99 74.54C183.99 74.54 193.02 69.93 195.77 65.03C195.77 65.03 203.73 56.6 210.01 56.89Z" fill="black"/>
<path d="M89.1897 51.17C88.3597 48.41 85.3197 43.62 79.5997 44.75C79.4497 44.77 75.9097 45.39 73.8497 48.73C72.1197 51.54 71.9697 55.31 73.4097 59.94C73.6497 61.06 75.3197 68.03 79.7397 68.98C79.8397 69 79.9297 69.01 80.0297 69.01C80.0497 69.01 80.0697 69.01 80.0997 69.01C82.0697 69.01 85.8997 67.62 86.7597 62.24C86.8997 61 87.3897 58.91 88.0397 58.14C88.1197 58.05 88.1897 57.94 88.2397 57.83C88.5797 57.14 90.1897 53.63 89.1997 51.16L89.1897 51.17Z" fill="black"/>
<path d="M7 122.01H3C1.34 122.01 0 120.67 0 119.01C0 117.35 1.34 116.01 3 116.01H7C8.66 116.01 10 117.35 10 119.01C10 120.67 8.66 122.01 7 122.01Z" fill="black"/>
<path d="M251.09 122.01H243.46C241.8 122.01 240.46 120.67 240.46 119.01C240.46 117.35 241.8 116.01 243.46 116.01H251.09C252.75 116.01 254.09 117.35 254.09 119.01C254.09 120.67 252.75 122.01 251.09 122.01ZM220.58 122.01H212.95C211.29 122.01 209.95 120.67 209.95 119.01C209.95 117.35 211.29 116.01 212.95 116.01H220.58C222.24 116.01 223.58 117.35 223.58 119.01C223.58 120.67 222.24 122.01 220.58 122.01ZM190.07 122.01H182.44C180.78 122.01 179.44 120.67 179.44 119.01C179.44 117.35 180.78 116.01 182.44 116.01H190.07C191.73 116.01 193.07 117.35 193.07 119.01C193.07 120.67 191.73 122.01 190.07 122.01ZM159.56 122.01H151.93C150.27 122.01 148.93 120.67 148.93 119.01C148.93 117.35 150.27 116.01 151.93 116.01H159.56C161.22 116.01 162.56 117.35 162.56 119.01C162.56 120.67 161.22 122.01 159.56 122.01ZM129.05 122.01H121.42C119.76 122.01 118.42 120.67 118.42 119.01C118.42 117.35 119.76 116.01 121.42 116.01H129.05C130.71 116.01 132.05 117.35 132.05 119.01C132.05 120.67 130.71 122.01 129.05 122.01ZM98.5396 122.01H90.9097C89.2497 122.01 87.9097 120.67 87.9097 119.01C87.9097 117.35 89.2497 116.01 90.9097 116.01H98.5396C100.2 116.01 101.54 117.35 101.54 119.01C101.54 120.67 100.2 122.01 98.5396 122.01ZM68.0296 122.01H60.3997C58.7397 122.01 57.3997 120.67 57.3997 119.01C57.3997 117.35 58.7397 116.01 60.3997 116.01H68.0296C69.6896 116.01 71.0296 117.35 71.0296 119.01C71.0296 120.67 69.6896 122.01 68.0296 122.01ZM37.5196 122.01H29.8896C28.2296 122.01 26.8896 120.67 26.8896 119.01C26.8896 117.35 28.2296 116.01 29.8896 116.01H37.5196C39.1796 116.01 40.5196 117.35 40.5196 119.01C40.5196 120.67 39.1796 122.01 37.5196 122.01Z" fill="black"/>
<path d="M277.97 122.01H273.97C272.31 122.01 270.97 120.67 270.97 119.01C270.97 117.35 272.31 116.01 273.97 116.01H277.97C279.63 116.01 280.97 117.35 280.97 119.01C280.97 120.67 279.63 122.01 277.97 122.01Z" fill="black"/>
<path d="M277.97 97.01H3C1.34 97.01 0 95.67 0 94.01C0 92.35 1.34 91.01 3 91.01H277.97C279.63 91.01 280.97 92.35 280.97 94.01C280.97 95.67 279.63 97.01 277.97 97.01Z" fill="black"/>
</g>
<defs>
<clipPath id="clip0_416_2034">
<rect width="280.97" height="122.01" fill="white"/>
</clipPath>
</defs>
</svg>
