<svg width="32" height="32" viewBox="0 0 32 32" fill="none" xmlns="http://www.w3.org/2000/svg">
<circle cx="16" cy="16" r="16" fill="#EFF1FF"/>
<path d="M24.9876 20.6863L17.03 7.76903C16.5972 7.01024 15.4034 7.01027 14.9678 7.76907C14.9678 7.76903 7.01021 20.6863 7.01021 20.6863C6.37873 21.6314 7.08464 23.1042 8.25017 23.069C8.25013 23.0691 23.7476 23.0691 23.7476 23.0691C24.9111 23.1026 25.6255 21.6348 24.9876 20.6863ZM22.3815 21.227L9.61957 21.2561C9.37715 21.2635 9.2073 20.9651 9.34439 20.764C9.34438 20.764 11.4002 17.3971 11.4002 17.3971C11.4778 17.2708 11.63 17.2126 11.7724 17.2579L22.4753 20.5924C22.8185 20.696 22.7482 21.2306 22.3815 21.227Z" fill="#4E48F1"/>
</svg>
