<svg width="220" height="100" viewBox="0 0 220 100" fill="none" xmlns="http://www.w3.org/2000/svg">
<g clip-path="url(#clip0_382_2753)">
<path d="M55.5154 55.5438C57.7449 55.3751 60.5046 55.2908 62.2158 56.8333C63.2522 57.7853 63.5897 58.9784 63.5897 60.2679C63.5897 61.8948 62.8184 62.9312 61.2638 63.6181C59.203 64.3894 56.9615 64.3894 54.7321 64.4737H54.3826C47.6821 64.7268 48.8029 64.8232 43.9824 64.8232C43.9824 67.4022 43.7294 69.2098 41.3191 70.668C38.6558 72.2949 33.4979 71.2706 33.2448 68.4386C33.1605 67.1491 33.0761 66.1127 32.9918 64.7389C30.8467 64.6545 28.9546 64.5701 26.8939 64.4858C24.2306 64.3171 20.1091 64.5701 17.9519 62.425C17.265 61.7381 16.9155 61.0512 16.9155 59.9305C16.9155 58.8941 17.265 57.7853 17.9519 57.0984C19.4945 55.3751 23.2785 55.5559 23.4473 55.5559H55.5033L55.5154 55.5438ZM78.7139 94.9029C79.4008 96.9637 78.6295 98.4219 76.4844 99.2895C75.1106 99.8077 73.6524 99.8921 72.4473 99.8921H32.4856C30.1597 99.8921 27.6772 99.8077 25.1826 99.7234C22.7724 99.639 21.0611 97.8313 20.796 95.2524L20.5429 89.2389C20.4586 88.0338 20.3742 85.973 21.3986 84.8523C22.9411 83.1289 26.0383 82.8759 28.5328 82.8759C31.7987 82.8759 42.7171 82.9602 68.9163 82.9602V79.8631H26.6408C25.5201 79.8631 24.5801 79.8631 23.7244 79.6943C22.688 79.4413 21.8324 79.4413 21.3142 78.4892C20.5429 77.2841 20.2778 76.1754 20.7116 74.7895C21.3142 72.9819 23.8931 72.7288 25.1826 72.5601C26.0383 72.3913 26.9059 72.307 27.8459 72.307C33.0038 72.307 39.0173 72.3913 69.784 72.3913C75.5444 72.3913 78.8103 74.1147 78.8103 78.0674V84.1653C78.8103 85.7079 78.1234 87.4312 76.3157 88.4555C74.8575 89.3112 73.3029 89.2268 71.8447 89.2268H31.1118V92.324H74.8454C76.6531 92.4927 78.1957 93.0952 78.7139 94.9029ZM76.9906 66.2935C76.2193 68.5229 73.6403 69.3063 71.5796 68.7881C70.8083 68.6193 70.1214 68.2699 69.6032 67.7517C67.6268 65.944 67.7112 61.473 67.7112 61.3043V39.564C67.7112 39.0458 67.7955 38.4432 67.7112 37.8407C67.6268 35.2617 67.7112 30.9595 69.1693 29.4169C70.3745 28.2962 71.6639 28.1274 73.0378 28.1274C74.9298 28.1274 76.4724 29.3326 77.1593 31.1402C78.0993 33.5505 78.0149 36.2138 78.0993 38.7084V57.0141C78.0993 60.0269 78.1836 62.6902 77.4123 65.1727C77.328 65.5222 77.1593 65.944 76.9785 66.2935H76.9906Z" fill="#4E48F1"/>
<path d="M121.158 41.9624C119.266 42.9145 117.639 42.1311 115.578 42.6493C115.831 44.1919 115.831 45.5778 115.831 46.5177V83.7317C115.831 83.563 119.531 84.3343 119.953 84.4186C122.447 84.8525 123.821 85.3707 123.472 88.7209C123.038 94.3006 120.122 93.1919 116.084 93.2762C113.421 93.3606 110.758 93.2762 108.263 93.2762C104.226 93.2762 102.768 93.2762 98.8994 93.3606C96.1518 93.3606 93.4885 93.3606 90.7408 93.2762C88.1619 93.2762 84.0404 92.5893 83.6065 88.8896C83.0883 83.6474 88.3306 84.2499 91.3434 83.9004C91.259 81.7553 91.259 74.621 91.259 72.5603V47.7229C91.259 47.3734 91.0059 45.1439 91.0903 42.6493C87.9931 42.4806 85.595 42.9988 84.0404 39.4678C82.7509 36.8045 84.2934 34.3099 86.535 33.4543C88.9452 32.5143 91.259 32.4179 93.7536 32.4179C102.093 32.4179 107.841 32.5023 116.265 32.5023C118.242 32.5023 120.989 32.8517 122.447 34.6474C123.906 36.3707 123.906 39.8896 122.098 41.3478C121.929 41.6009 121.58 41.7816 121.158 41.9504V41.9624ZM101.045 43.9388C100.96 45.0596 100.876 46.9516 100.96 48.5785L101.045 82.0928C101.045 82.4423 101.129 83.6353 101.985 83.7197H105.853V50.2054C105.853 50.121 105.853 45.1319 105.684 43.6737C105.684 43.3242 105.769 42.818 105.082 42.6373H101.816C101.129 42.5529 101.045 43.1555 101.045 43.9268V43.9388ZM149.599 88.6245C149.683 91.7216 149.683 95.3249 147.104 97.0483C146.248 97.5665 145.381 97.9039 144.525 97.9039C140.572 97.9039 140.054 91.7216 140.054 88.5401V66.8842H134.474V89.0583C134.643 91.6373 134.306 94.8188 133.185 96.4457C132.498 97.3857 131.462 97.9039 130.172 97.9039C128.883 97.9039 127.846 97.217 126.906 96.3613C124.93 94.4693 124.93 91.3722 124.93 88.7932V38.0096C124.846 34.8281 125.279 30.0197 129.051 29.0677C130.257 28.8146 131.377 29.0677 132.233 30.0197C134.812 32.5987 134.462 39.6486 134.462 44.7101V56.4841H140.042V38.7809C140.042 35.515 139.44 29.5859 144.248 29.0677C145.453 28.9833 146.477 29.3207 147.261 30.1884C149.924 32.9361 149.755 40.0704 149.575 43.8544V88.6245H149.599Z" fill="#4E48F1"/>
<path d="M155.793 87.0817C155.793 85.8765 156.227 84.8522 156.914 84.0689C158.721 82.2612 162.927 82.3456 163.096 82.3456L210.095 82.4299C213.012 82.4299 215.591 82.0804 217.483 83.7194C218.604 84.7558 219.291 86.0453 219.291 87.4191C219.291 89.1424 218.17 90.685 216.458 91.2875C214.145 92.1431 211.65 92.4926 209.24 92.577C200.9 92.9265 192.657 92.6613 185.005 92.6613C176.75 92.6613 168.338 92.9144 163.18 92.6613C159.565 92.3119 155.793 91.5406 155.793 87.0817ZM175.991 67.836C173.412 69.5593 171.002 72.9095 167.398 73.9338C165.337 74.452 162.59 73.7651 161.3 72.0418C159.493 69.3785 161.553 66.3657 163.277 64.305C166.711 60.3522 170.327 56.7489 174.195 53.3023C176.69 51.1572 181.064 45.4811 181.064 45.4811C181.064 45.4811 181.064 40.0701 181.498 36.8042C181.751 34.7435 182.619 32.7671 183.559 31.8151C185.017 30.4412 188.03 30.0917 189.837 30.6099C192.501 31.3812 193.537 33.442 193.79 36.1053C194.043 38.2504 193.875 43.9265 195.164 45.7341C196.116 47.108 196.887 48.3974 197.996 49.6026C201.949 54.0735 205.817 58.7132 209.939 63.0034C212.602 65.8355 215.699 71.6803 210.879 74.0062C207.529 75.6331 204.347 72.9698 202.202 70.6559L187.765 56.9899L175.991 67.8119V67.836Z" fill="#4E48F1"/>
<path d="M18.2653 38.4915C18.1809 38.5759 18.0966 38.6723 18.0122 38.7808C12.0107 45.6258 15.2525 56.3393 23.9534 59.0508C27.2796 60.0872 31.8108 60.6416 37.8846 59.9667C37.8846 59.9667 65.072 57.3998 65.072 39.4556C65.072 39.4556 65.5902 16.8838 38.4028 19.9689C38.4028 19.9689 25.0621 20.9933 20.9648 33.8157C20.9648 33.8157 20.9165 33.9603 20.8322 34.2013C20.2778 35.7921 19.4222 37.2744 18.2773 38.5156L18.2653 38.4915Z" fill="white"/>
<path d="M57.0096 15.835C55.1899 13.0633 51.4661 12.533 51.3335 12.521C44.5849 11.4002 42.7893 17.1004 42.7893 17.1366C41.8252 20.0168 43.91 22.3306 45.1393 23.1501C45.1634 23.1621 45.1875 23.1742 45.2116 23.1862C48.2002 24.7529 50.7189 25.5362 52.7194 25.5362C53.7558 25.5362 54.6476 25.3313 55.4068 24.9096C57.2266 23.9093 57.564 22.0534 57.6122 21.6196C58.2509 19.354 58.046 17.4017 57.0096 15.823V15.835Z" fill="#4E48F1"/>
<path d="M39.1018 37.9248C38.7764 37.3463 38.2703 37.1776 38.1739 37.1535C38.1015 37.1294 38.0413 37.1294 37.969 37.1294C35.8841 37.1294 33.6185 39.7806 33.3654 40.0819C33.3534 40.106 33.3293 40.1301 33.3172 40.1422C32.8713 40.8171 33.0039 41.3835 33.1244 41.6606C33.5703 42.697 35.149 43.0345 35.619 43.1188C35.6552 43.1188 35.7034 43.1188 35.7395 43.1188C37.3182 43.1188 37.9569 42.5645 38.0654 42.444C38.6077 41.9017 39.0656 40.4555 39.1861 40.0217C39.4392 39.1781 39.4031 38.4671 39.1018 37.9248Z" fill="#4E48F1"/>
<path d="M35.4744 48.5418C34.9201 48.5418 34.5224 48.3611 34.4621 48.3249C34.0765 48.1321 33.9319 47.6742 34.1126 47.2885C34.3055 46.9149 34.7513 46.7583 35.137 46.939C35.1731 46.9511 35.4985 47.0837 35.8721 46.9149C36.3782 46.6739 36.8362 45.9508 37.1375 44.8662C37.2098 44.6011 37.4146 44.3963 37.6798 44.336C37.9449 44.2637 38.2221 44.336 38.4149 44.5409C38.4149 44.5409 39.2223 45.3121 40.1021 45.1916C40.7167 45.1073 41.2951 44.6011 41.8133 43.6852C42.0302 43.3116 42.4882 43.1911 42.8618 43.396C43.2354 43.6009 43.3559 44.0709 43.151 44.4445C42.3797 45.8062 41.4156 46.5655 40.2949 46.7221C39.4995 46.8306 38.7764 46.5896 38.2582 46.3003C37.8123 47.3247 37.2098 48.0116 36.4626 48.349C36.1011 48.5057 35.7636 48.5659 35.4624 48.5659L35.4744 48.5418Z" fill="#4E48F1"/>
<path d="M48.7667 32.3212C47.3688 30.1399 45.7781 28.8986 44.0427 28.6456C41.9819 28.3443 40.5117 29.5614 40.4755 29.5976C38.0292 31.5499 38.945 34.4301 39.7766 35.7196C40.4394 36.9608 42.4278 37.5152 42.8135 37.6116C42.8737 37.6237 42.934 37.6357 42.9942 37.6357C43.5727 37.6357 44.6091 38.1901 45.1634 38.5516C46.0432 39.0819 46.8627 39.2867 47.5616 39.2867C48.827 39.2867 49.767 38.636 50.1767 38.1298C50.2129 38.0937 50.237 38.0455 50.2611 38.0093C51.3818 35.8883 49.1162 32.8153 48.7426 32.3332L48.7667 32.3212Z" fill="#4E48F1"/>
<path d="M32.4374 38.6117C32.0156 37.1897 30.4489 34.7433 27.5205 35.3218C27.4482 35.3338 25.6284 35.6471 24.5679 37.3584C23.6762 38.7925 23.6038 40.7327 24.339 43.1068C24.4595 43.6853 25.3151 47.2524 27.5807 47.7465C27.6289 47.7465 27.6771 47.7586 27.7253 47.7586C27.7253 47.7586 27.7494 47.7586 27.7615 47.7586C28.7738 47.7586 30.7381 47.0475 31.184 44.2878C31.2563 43.6491 31.5094 42.5766 31.8348 42.1909C31.8709 42.1427 31.9071 42.0945 31.9433 42.0343C32.112 41.6848 32.9435 39.8771 32.4374 38.6117Z" fill="#4E48F1"/>
<path d="M18.0122 38.7804C18.0966 38.684 18.181 38.5875 18.2653 38.4911C19.4102 37.2499 20.2658 35.7676 20.8202 34.1768C20.9045 33.9478 20.9527 33.7912 20.9527 33.7912C21.483 32.1402 22.1699 30.682 22.9532 29.3925C22.7966 28.9707 22.6158 28.7417 22.5796 28.6935C21.3384 27.1389 19.9766 26.4279 18.5304 26.5725C15.6261 26.8738 13.6859 30.7181 13.5895 30.8989C10.4682 37.6476 14.3005 40.2386 14.891 40.588C15.361 40.9134 15.8671 41.0942 16.3733 41.1424C16.8192 40.3109 17.3494 39.5155 18.0122 38.7683V38.7804Z" fill="#4E48F1"/>
<path d="M0.369385 11.1353C0.369385 11.1353 33.4137 31.1523 65.3492 27.9587C65.3492 27.9587 35.378 10.5448 0.369385 11.1353Z" fill="#4E48F1"/>
<path d="M26.3154 0C26.3154 0 31.9554 21.9572 49.0439 23.9457C49.0439 23.9457 50.466 4.90482 26.3154 0Z" fill="#4E48F1"/>
<path d="M39.0776 10.5688C39.0776 10.5688 43.404 16.6426 43.8619 21.2462L39.0776 10.5688Z" fill="#4E48F1"/>
<path d="M39.0776 10.5688C39.0776 10.5688 43.404 16.6426 43.8619 21.2462" stroke="white" stroke-width="1.20512" stroke-linecap="round" stroke-linejoin="round"/>
</g>
<defs>
<clipPath id="clip0_382_2753">
<rect width="218.921" height="99.88" fill="white" transform="translate(0.369385)"/>
</clipPath>
</defs>
</svg>
