<svg width="32" height="32" viewBox="0 0 32 32" fill="none" xmlns="http://www.w3.org/2000/svg">
<circle cx="16" cy="16" r="16" fill="#EFF1FF"/>
<path d="M16.0164 6.45337C14.9856 6.45337 14.147 7.29192 14.147 8.32278C14.147 9.35364 14.9855 10.1922 16.0164 10.1922C17.0472 10.1922 17.8858 9.35364 17.8858 8.32278C17.8858 7.29192 17.0472 6.45337 16.0164 6.45337Z" fill="#4E48F1"/>
<path d="M23.249 23.9964L22.0027 18.596C21.8638 18.0402 21.3664 17.6521 20.7936 17.6521H18.372C18.0295 17.0897 17.5828 16.5965 17.0548 16.1998V12.6671C17.0548 11.7278 16.0488 11.1534 15.2511 11.5522L12.7586 12.7985C12.3336 13.0109 12.0739 13.4381 12.0739 13.9133V15.5073C12.0662 15.51 12.0583 15.5108 12.0507 15.5138C10.0436 16.2977 8.74658 18.197 8.74658 20.3524C8.74658 23.2157 11.076 25.5452 13.9394 25.5452C16.822 25.5452 19.2431 23.1582 19.123 20.1447H19.8206L20.8308 24.6013C20.9972 25.2658 21.6661 25.6781 22.3424 25.508C23.0086 25.3415 23.4153 24.6634 23.249 23.9964ZM13.9393 24.2989C11.7632 24.2989 9.99281 22.5285 9.99281 20.3524C9.99281 18.8755 10.7984 17.5632 12.0739 16.8813V18.483C12.0739 19.1702 12.6287 19.7293 13.316 19.7293C14.0032 19.7293 14.5622 19.1702 14.5622 18.483V16.4433C14.5931 16.4542 14.6241 16.4647 14.6574 16.4708C16.528 16.8144 17.8858 18.4469 17.8858 20.3525C17.8858 22.5285 16.1154 24.2989 13.9393 24.2989Z" fill="#4E48F1"/>
</svg>
