<svg width="103" height="36" viewBox="0 0 103 36" fill="none" xmlns="http://www.w3.org/2000/svg">
<g clip-path="url(#clip0_435_2250)">
<path fill-rule="evenodd" clip-rule="evenodd" d="M3.14878 19.721C3.17131 19.6966 3.19362 19.672 3.21573 19.6473C3.42254 19.4157 3.61079 19.169 3.78033 18.9103C4.08487 18.4456 4.32905 17.9418 4.51206 17.416C4.55286 17.2902 4.58006 17.212 4.58006 17.212C6.76966 10.3678 13.8893 9.82035 13.8893 9.82035C28.4005 8.17815 28.1251 20.2244 28.1251 20.2244C28.1251 29.8056 13.6139 31.1758 13.6139 31.1758C10.3703 31.5361 7.95626 31.2437 6.17806 30.6896C1.80387 29.3244 0.0120447 24.1658 2.50487 20.5199C2.65692 20.2975 2.82493 20.0807 3.00926 19.8708C3.02897 19.8465 3.04936 19.8229 3.06983 19.8C3.09361 19.7734 3.11749 19.7476 3.14052 19.7229L3.14512 19.7179L3.14878 19.721C3.14882 19.721 3.14874 19.7211 3.14878 19.721ZM3.74649 20.5773C1.09043 23.6493 2.52559 28.4811 6.48193 29.7159C8.10419 30.2214 10.3736 30.5095 13.5012 30.162L13.5096 30.1611L13.5173 30.1603L13.5232 30.1597L13.5489 30.1571C13.5727 30.1546 13.6096 30.1506 13.6589 30.1449C13.7573 30.1334 13.9049 30.1151 14.0944 30.0882C14.4737 30.0345 15.0198 29.947 15.6769 29.8126C16.9955 29.543 18.7391 29.0893 20.4708 28.3541C23.9902 26.86 27.1051 24.3772 27.1051 20.2244V20.2127L27.1053 20.2037L27.1053 20.2021L27.1053 20.201L27.1054 20.1863C27.1055 20.1704 27.1054 20.1438 27.1048 20.1072C27.1035 20.034 27.0999 19.9211 27.0906 19.7749C27.0719 19.4819 27.0302 19.0576 26.9378 18.5505C26.7522 17.5307 26.3679 16.208 25.5827 14.9452C24.804 13.6929 23.6263 12.4901 21.8201 11.6848C20.0072 10.8764 17.4942 10.4389 14.004 10.8339L13.9857 10.8359L13.9701 10.8371L13.969 10.8372L13.9621 10.8378C13.9538 10.8386 13.939 10.84 13.9181 10.8423C13.8763 10.8468 13.8103 10.8546 13.7229 10.867C13.5479 10.892 13.2883 10.9354 12.967 11.0078C12.3224 11.1532 11.441 11.413 10.4996 11.868C8.6258 12.7734 6.53955 14.4345 5.55155 17.5228L5.54765 17.5349L5.54354 17.5468L5.54292 17.5486L5.54003 17.5569L5.52784 17.5928C5.51706 17.6248 5.50133 17.672 5.4823 17.7306L5.47896 17.7409L5.47539 17.7512C5.13782 18.7212 4.6136 19.6379 3.89815 20.413L3.74649 20.5773Z" fill="white"/>
<path d="M23.8239 7.62395C22.8549 6.14155 20.8693 5.86275 20.7979 5.85255C17.1973 5.25075 16.2385 8.30055 16.2351 8.31755C15.7251 9.85095 16.8335 11.0886 17.4931 11.5272C17.5067 11.534 17.5169 11.5442 17.5305 11.5476C19.1285 12.384 20.4681 12.8056 21.5357 12.8056C22.0865 12.8056 22.5659 12.6934 22.9705 12.469C23.9395 11.9318 24.1197 10.9458 24.1503 10.7146C24.4903 9.50415 24.3815 8.46375 23.8307 7.62055L23.8239 7.62395Z" fill="white"/>
<path d="M14.2666 19.4152C14.0932 19.1058 13.8246 19.0174 13.7702 19.0038C13.7362 18.9936 13.6988 18.9902 13.6614 18.9902C12.5496 18.9902 11.3392 20.4046 11.2032 20.5678C11.193 20.578 11.1862 20.5916 11.176 20.6018C10.938 20.9588 11.0094 21.2614 11.074 21.411C11.3154 21.9652 12.1518 22.1454 12.4034 22.1862C12.4272 22.1896 12.4476 22.193 12.4714 22.193C13.3146 22.193 13.6546 21.8938 13.7124 21.836C14.0014 21.547 14.2428 20.7718 14.3108 20.5406C14.4434 20.0884 14.4264 19.711 14.2632 19.4186L14.2666 19.4152Z" fill="white"/>
<path d="M12.3248 25.0864C12.029 25.0864 11.8182 24.9878 11.7842 24.9708C11.5802 24.8688 11.4986 24.624 11.6006 24.42C11.7026 24.2194 11.944 24.1378 12.1446 24.233C12.1616 24.2398 12.335 24.3112 12.5356 24.216C12.8076 24.0902 13.049 23.6992 13.2156 23.1212C13.2564 22.9818 13.3652 22.873 13.508 22.8356C13.6474 22.7982 13.797 22.839 13.9024 22.9444C13.9024 22.9444 14.3308 23.3558 14.8034 23.2912C15.1332 23.247 15.4392 22.975 15.7214 22.4854C15.8336 22.2882 16.0852 22.2202 16.2824 22.3324C16.4796 22.4446 16.5476 22.6962 16.4354 22.8934C16.0206 23.6176 15.5072 24.029 14.9122 24.1072C14.4838 24.165 14.103 24.0358 13.8242 23.8828C13.5862 24.4336 13.2632 24.7974 12.862 24.9742C12.6716 25.0592 12.488 25.0864 12.3316 25.0864H12.3248Z" fill="white"/>
<path d="M19.4242 16.4263C18.6796 15.2601 17.8296 14.6005 16.9048 14.4645C15.8032 14.3013 15.0212 14.9575 15.0008 14.9745C13.6986 16.0183 14.1814 17.5551 14.6302 18.2419C14.9838 18.9083 16.0446 19.2007 16.2554 19.2551C16.2894 19.2619 16.32 19.2687 16.354 19.2687C16.66 19.2687 17.2176 19.5611 17.51 19.7583C17.9826 20.0405 18.4144 20.1493 18.7918 20.1493C19.4684 20.1493 19.9682 19.8059 20.1892 19.5305C20.2062 19.5101 20.2198 19.4863 20.2334 19.4625C20.8352 18.3303 19.6214 16.6881 19.4242 16.4331V16.4263Z" fill="white"/>
<path d="M10.71 19.7823C10.4822 19.0241 9.64917 17.7151 8.08177 18.0245C8.04097 18.0313 7.07197 18.1979 6.50757 19.1125C6.03497 19.8809 5.99417 20.9145 6.38517 22.1827C6.44977 22.4887 6.90877 24.3961 8.11577 24.6579C8.14297 24.6647 8.17017 24.6681 8.19737 24.6681C8.20417 24.6681 8.21097 24.6681 8.21437 24.6681C8.75157 24.6681 9.80217 24.2873 10.0402 22.8151C10.0776 22.4751 10.2136 21.9039 10.3904 21.6931C10.4108 21.6659 10.4312 21.6387 10.4448 21.6081C10.5366 21.4211 10.9786 20.4589 10.7066 19.7823H10.71Z" fill="white"/>
<path d="M3.00578 19.8704C3.05338 19.816 3.09758 19.765 3.14178 19.7174C3.75378 19.0544 4.20938 18.2656 4.50518 17.4122C4.54938 17.2864 4.57318 17.2082 4.57318 17.2082C4.85538 16.3242 5.22258 15.549 5.64078 14.8622C5.55918 14.6344 5.46398 14.512 5.44018 14.4848C4.77378 13.6552 4.04618 13.2744 3.27778 13.356C1.72738 13.5192 0.68698 15.566 0.63938 15.6646C-1.02322 19.2686 1.02018 20.649 1.33638 20.836C1.58798 21.0128 1.85318 21.108 2.12518 21.1318C2.35978 20.6898 2.64878 20.2648 2.99898 19.8636L3.00578 19.8704Z" fill="white"/>
</g>
<path d="M53.7024 27.9822C54.0088 28.0205 54.2769 28.0971 54.5068 28.2121C54.7366 28.327 54.8994 28.5376 54.9951 28.8441C55.2249 29.5335 54.976 30.0219 54.2482 30.3092C54.0184 30.4049 53.7886 30.4624 53.5587 30.4815C53.3289 30.5007 53.1087 30.5103 52.898 30.5103H39.5396C39.1565 30.5103 38.7543 30.5007 38.333 30.4815C37.9308 30.4815 37.5191 30.472 37.0977 30.4528C36.6955 30.4337 36.3604 30.29 36.0922 30.0219C35.8241 29.7538 35.6709 29.3995 35.6326 28.959L35.5464 26.948C35.5273 26.7374 35.5273 26.4884 35.5464 26.2011C35.5656 25.9138 35.6613 25.6744 35.8337 25.4829C36.1018 25.1956 36.4561 25.0137 36.8966 24.9371C37.3563 24.8605 37.7968 24.8222 38.2181 24.8222C38.4862 24.8222 38.9267 24.8222 39.5396 24.8222C40.1716 24.8222 41.0238 24.8317 42.0963 24.8509C43.1689 24.8509 44.4903 24.8509 46.0608 24.8509C47.6504 24.8509 49.5368 24.8509 51.7202 24.8509V23.8167H37.5861C37.3946 23.8167 37.2222 23.8167 37.069 23.8167C36.9158 23.8167 36.7626 23.7975 36.6093 23.7592C36.437 23.7209 36.2838 23.6826 36.1497 23.6443C36.0156 23.606 35.9007 23.5103 35.805 23.3571C35.5368 22.9549 35.4698 22.5431 35.6039 22.1218C35.6613 21.9685 35.7475 21.8536 35.8624 21.777C35.9773 21.6813 36.1114 21.6047 36.2646 21.5472C36.4178 21.4897 36.5615 21.4514 36.6955 21.4323C36.8487 21.4131 36.9828 21.394 37.0977 21.3748C37.385 21.3174 37.6818 21.2887 37.9883 21.2887C38.2756 21.2887 38.582 21.2887 38.9076 21.2887C39.2331 21.2887 39.6258 21.2887 40.0854 21.2887C40.5642 21.2887 41.1292 21.2982 41.7803 21.3174C42.4315 21.3174 43.2263 21.3174 44.1647 21.3174C45.1223 21.3174 46.2331 21.3174 47.4972 21.3174C48.7803 21.3174 50.2838 21.3174 52.0074 21.3174C52.9842 21.3174 53.7311 21.4706 54.2482 21.777C54.7653 22.0643 55.0239 22.5431 55.0239 23.2134V25.2531C55.0239 25.5212 54.9568 25.7893 54.8228 26.0575C54.7078 26.3064 54.4972 26.5171 54.1907 26.6895C53.9418 26.8427 53.6928 26.9289 53.4438 26.948C53.1948 26.948 52.9459 26.948 52.6969 26.948H39.0799V27.9822H53.7024ZM47.5546 11.2627C47.5546 11.933 47.4301 12.4884 47.1812 12.9289C46.9322 13.3502 46.4821 13.7524 45.831 14.1354C45.3905 14.4036 44.9117 14.6047 44.3946 14.7387C43.8775 14.8728 43.3412 14.959 42.7858 14.9973C42.2304 15.0164 41.675 14.9973 41.1196 14.9398C40.5834 14.8824 40.0758 14.8058 39.597 14.71C38.6203 14.4993 37.8159 14.1163 37.1839 13.5609C36.5519 12.9863 36.2359 12.2203 36.2359 11.2627C36.2359 10.6306 36.3604 10.0944 36.6093 9.6539H36.4657C36.0061 9.6539 35.6134 9.52941 35.2879 9.28044C34.9623 9.01231 34.7995 8.68673 34.7995 8.30369C34.7995 7.92066 34.9623 7.60465 35.2879 7.35568C35.6134 7.1067 36.0061 6.98222 36.4657 6.98222H40.1141V6.14911C40.1141 5.84268 40.2769 5.57456 40.6025 5.34473C40.9472 5.11491 41.3398 5 41.7803 5C42.0102 5 42.2304 5.0383 42.4411 5.11491C42.6709 5.17237 42.8816 5.25855 43.0731 5.37346C43.2646 5.46922 43.4178 5.58413 43.5327 5.71819C43.6476 5.85226 43.7051 5.9959 43.7051 6.14911V6.98222H47.2961C47.7749 6.98222 48.1771 7.1067 48.5026 7.35568C48.8282 7.60465 48.991 7.92066 48.991 8.30369C48.991 8.68673 48.8282 9.01231 48.5026 9.28044C48.1771 9.52941 47.7749 9.6539 47.2961 9.6539H47.1524C47.4206 10.1327 47.5546 10.669 47.5546 11.2627ZM47.2386 15.6867C47.6217 15.6484 48.0143 15.6484 48.4165 15.6867C48.8378 15.7059 49.1921 15.8495 49.4794 16.1177C49.7858 16.4049 49.939 16.788 49.939 17.2668C49.939 17.7839 49.6805 18.1573 49.1634 18.3871C48.8186 18.5212 48.4643 18.5978 48.1005 18.617C47.7366 18.6361 47.3631 18.6553 46.9801 18.6744H46.8652C46.3098 18.6936 45.8884 18.7127 45.6011 18.7319C45.3139 18.751 45.0745 18.7702 44.8829 18.7893C44.6914 18.7893 44.4903 18.7893 44.2797 18.7893C44.0881 18.7893 43.7913 18.7893 43.3891 18.7893C43.3891 19.2298 43.3412 19.6033 43.2455 19.9097C43.1497 20.2162 42.9007 20.4939 42.4985 20.7428C42.2687 20.8769 42.0006 20.9631 41.6942 21.0014C41.4069 21.0205 41.1196 21.0014 40.8323 20.9439C40.5642 20.8673 40.3248 20.7524 40.1141 20.5992C39.9226 20.4268 39.8173 20.2257 39.7981 19.9959C39.779 19.7852 39.7598 19.5841 39.7407 19.3926C39.7407 19.2011 39.7311 18.9904 39.7119 18.7606C39.3481 18.7415 39.0033 18.7319 38.6777 18.7319C38.3522 18.7127 38.017 18.6936 37.6723 18.6744C37.4424 18.6553 37.1935 18.6457 36.9253 18.6457C36.6572 18.6457 36.3795 18.6265 36.0922 18.5882C35.8241 18.5499 35.5656 18.4829 35.3166 18.3871C35.0676 18.2914 34.8569 18.1573 34.6846 17.985C34.4548 17.7551 34.3398 17.4774 34.3398 17.1519C34.3398 16.9795 34.3686 16.8071 34.426 16.6348C34.4835 16.4624 34.5697 16.3187 34.6846 16.2038C34.8186 16.0698 34.9814 15.9644 35.1729 15.8878C35.3836 15.8112 35.5847 15.7633 35.7762 15.7442C35.9678 15.7059 36.1305 15.6867 36.2646 15.6867C36.4178 15.6867 36.504 15.6867 36.5232 15.6867H47.2386ZM54.5642 18.9042C54.5259 19.0192 54.478 19.1436 54.4206 19.2777C54.2865 19.6607 54.0375 19.9193 53.6736 20.0534C53.3098 20.1874 52.9554 20.2066 52.6107 20.1108C52.3426 20.0534 52.1223 19.9384 51.95 19.7661C51.7776 19.6129 51.6435 19.4213 51.5478 19.1915C51.4712 18.9426 51.4137 18.7032 51.3754 18.4733C51.3371 18.2435 51.318 18.052 51.318 17.8988C51.318 17.7264 51.318 17.6307 51.318 17.6115V10.3434C51.318 10.2476 51.318 10.1519 51.318 10.0561C51.3371 9.96033 51.3371 9.86457 51.318 9.76881C51.318 9.55814 51.318 9.31874 51.318 9.05062C51.318 8.76334 51.3275 8.49521 51.3467 8.24624C51.385 7.97811 51.4425 7.72914 51.5191 7.49932C51.5957 7.26949 51.6914 7.08755 51.8063 6.95349C52.017 6.76197 52.2277 6.64706 52.4384 6.60876C52.649 6.5513 52.8693 6.52257 53.0991 6.52257C53.4247 6.52257 53.7024 6.61833 53.9322 6.80985C54.1812 6.98222 54.3631 7.22162 54.478 7.52805C54.6312 7.93023 54.7174 8.35157 54.7366 8.79207C54.7557 9.21341 54.7749 9.63475 54.794 10.0561V16.1751C54.794 16.6731 54.7845 17.1519 54.7653 17.6115C54.7653 18.052 54.6983 18.4829 54.5642 18.9042ZM42.4124 12.5554C42.9486 12.4596 43.3795 12.2969 43.7051 12.067C44.0307 11.8372 44.1935 11.5691 44.1935 11.2627C44.1935 10.9562 44.1264 10.7073 43.9924 10.5157C43.8583 10.3242 43.686 10.1806 43.4753 10.0848C43.2646 9.98906 43.0156 9.92203 42.7284 9.88372C42.4602 9.84542 42.1825 9.82627 41.8953 9.82627C41.608 9.82627 41.3207 9.83584 41.0334 9.855C40.7653 9.87415 40.5163 9.94118 40.2865 10.0561C40.0758 10.1519 39.9035 10.2955 39.7694 10.487C39.6353 10.6785 39.5683 10.9371 39.5683 11.2627C39.5683 11.4733 39.6449 11.6744 39.7981 11.8659C39.9705 12.0383 40.1907 12.1819 40.4589 12.2969C40.727 12.4118 41.0334 12.498 41.3782 12.5554C41.7229 12.6129 42.0676 12.6129 42.4124 12.5554Z" fill="white"/>
<path d="M69.5092 10.9467C69.4709 11.0233 69.3655 11.0903 69.1932 11.1477C68.8676 11.301 68.5611 11.3584 68.2739 11.3201C67.9866 11.2818 67.6706 11.301 67.3259 11.3776C67.3642 11.6457 67.3833 11.8947 67.3833 12.1245C67.4025 12.3352 67.412 12.5171 67.412 12.6703V25.1095C67.412 25.0903 67.4791 25.0903 67.6131 25.1095C67.7472 25.1286 67.8908 25.1573 68.044 25.1956C68.2164 25.2148 68.3696 25.2435 68.5037 25.2818C68.6569 25.3201 68.7527 25.3393 68.791 25.3393C69.2123 25.4159 69.5283 25.5404 69.739 25.7127C69.9497 25.8659 70.0263 26.2203 69.9688 26.7757C69.9305 27.2353 69.8443 27.58 69.7103 27.8099C69.5762 28.0205 69.3943 28.1642 69.1644 28.2408C68.9538 28.2982 68.7048 28.327 68.4175 28.327C68.1494 28.3078 67.843 28.2982 67.4982 28.2982C67.0577 28.3174 66.6172 28.327 66.1767 28.327C65.7362 28.3078 65.3053 28.2982 64.884 28.2982C64.5393 28.2982 64.2424 28.2982 63.9934 28.2982C63.7636 28.2982 63.5338 28.2982 63.304 28.2982C63.0741 28.2982 62.8347 28.3078 62.5858 28.327C62.3559 28.327 62.0782 28.327 61.7527 28.327C61.293 28.327 60.8334 28.327 60.3737 28.327C59.9332 28.327 59.4832 28.3174 59.0235 28.2982C58.8129 28.2982 58.5735 28.2791 58.3053 28.2408C58.0372 28.2025 57.7882 28.1354 57.5584 28.0397C57.3286 27.9248 57.1275 27.7716 56.9551 27.58C56.7828 27.3885 56.6774 27.1395 56.6391 26.8331C56.6008 26.3926 56.6583 26.067 56.8115 25.8564C56.9839 25.6266 57.2041 25.4733 57.4722 25.3967C57.7595 25.301 58.0564 25.2531 58.3628 25.2531C58.6884 25.2339 58.9756 25.2052 59.2246 25.1669C59.2246 24.9945 59.215 24.736 59.1959 24.3913C59.1959 24.0274 59.1959 23.6539 59.1959 23.2709C59.1959 22.8687 59.1959 22.4952 59.1959 22.1505C59.1959 21.8058 59.1959 21.5472 59.1959 21.3748V13.0725C59.1959 13.0151 59.1767 12.8235 59.1384 12.498C59.1193 12.1724 59.1193 11.7989 59.1384 11.3776C58.8703 11.3584 58.6213 11.3488 58.3915 11.3488C58.1808 11.3488 57.9702 11.3201 57.7595 11.2627C57.568 11.2052 57.386 11.1094 57.2137 10.9754C57.0605 10.8222 56.9168 10.6019 56.7828 10.3146C56.5721 9.87415 56.5625 9.47196 56.754 9.10807C56.9455 8.72504 57.2328 8.45691 57.6159 8.30369C58.0181 8.15048 58.4107 8.05472 58.7937 8.01642C59.1959 7.97811 59.6077 7.95896 60.029 7.95896C60.7185 7.95896 61.3696 7.95896 61.9825 7.95896C62.5953 7.95896 63.1891 7.96854 63.7636 7.98769C64.3573 7.98769 64.9606 7.98769 65.5735 7.98769C66.1863 7.98769 66.8471 7.98769 67.5557 7.98769C67.8813 7.98769 68.2451 8.03557 68.6473 8.13133C69.0495 8.20794 69.3751 8.39945 69.6241 8.70589C69.739 8.8591 69.8252 9.04104 69.8826 9.25171C69.9592 9.44323 69.988 9.64433 69.9688 9.855C69.9688 10.0657 69.9305 10.2763 69.8539 10.487C69.7773 10.6785 69.6624 10.8317 69.5092 10.9467ZM78.7021 26.7469C78.7212 27.264 78.6925 27.7907 78.6159 28.327C78.5393 28.8632 78.2903 29.275 77.869 29.5623C77.5434 29.7538 77.2561 29.8495 77.0071 29.8495C76.6815 29.8495 76.4134 29.7346 76.2027 29.5048C76.0112 29.275 75.858 28.9973 75.7431 28.6717C75.6473 28.3461 75.5803 28.011 75.542 27.6662C75.5228 27.3023 75.5133 26.9863 75.5133 26.7182V19.4788H73.646V26.8906C73.6843 27.3311 73.6651 27.7907 73.5885 28.2695C73.5311 28.7292 73.4066 29.093 73.2151 29.3612C72.9852 29.6867 72.6501 29.8495 72.2096 29.8495C71.9989 29.8495 71.7978 29.8017 71.6063 29.7059C71.4339 29.6101 71.2711 29.4857 71.1179 29.3324C70.7923 29.0069 70.6008 28.6142 70.5434 28.1546C70.4859 27.695 70.4572 27.2449 70.4572 26.8044V9.82627C70.4572 9.55814 70.4668 9.27086 70.4859 8.96443C70.5051 8.63885 70.5625 8.33242 70.6583 8.04515C70.754 7.75787 70.8881 7.50889 71.0605 7.29822C71.252 7.0684 71.5105 6.91518 71.8361 6.83858C72.2766 6.74282 72.6309 6.84815 72.899 7.15458C73.1097 7.36525 73.2629 7.66211 73.3587 8.04515C73.4736 8.42818 73.5502 8.84952 73.5885 9.30917C73.6268 9.74966 73.646 10.2189 73.646 10.7168C73.646 11.1956 73.646 11.6457 73.646 12.067V16.0027H75.5133V10.0848C75.5133 9.81669 75.5133 9.51026 75.5133 9.16553C75.5133 8.80164 75.542 8.45691 75.5995 8.13133C75.6761 7.78659 75.8101 7.49932 76.0016 7.2695C76.2123 7.02052 76.5187 6.87688 76.9209 6.83858C77.3423 6.80027 77.6774 6.92476 77.9264 7.21204C78.1562 7.44186 78.3286 7.74829 78.4435 8.13133C78.5584 8.51437 78.635 8.92613 78.6733 9.36662C78.7116 9.80712 78.7308 10.2476 78.7308 10.6881C78.7308 11.1094 78.7212 11.4733 78.7021 11.7798V26.7469ZM62.7294 11.3776C62.6145 11.3584 62.5379 11.3967 62.4996 11.4925C62.4804 11.5691 62.4709 11.6744 62.4709 11.8085C62.4517 12 62.4326 12.2394 62.4134 12.5267C62.4134 12.814 62.423 13.0917 62.4421 13.3598L62.4709 24.5636C62.4709 24.6211 62.4804 24.7264 62.4996 24.8796C62.5379 25.0137 62.6336 25.0903 62.7869 25.1095H64.0796V13.9056C64.0796 13.9056 64.0796 13.8194 64.0796 13.6471C64.0796 13.4555 64.0796 13.2353 64.0796 12.9863C64.0796 12.7374 64.07 12.498 64.0509 12.2681C64.0509 12.0192 64.0413 11.8372 64.0222 11.7223C64.0222 11.6648 64.0126 11.6074 63.9934 11.5499C63.9934 11.4733 63.936 11.4159 63.8211 11.3776H62.7294Z" fill="white"/>
<path d="M87.521 19.7948C87.3104 19.948 87.0901 20.1204 86.8603 20.3119C86.6496 20.5034 86.4294 20.7045 86.1996 20.9152C85.9697 21.1067 85.7303 21.2887 85.4814 21.461C85.2324 21.6334 84.9547 21.7579 84.6483 21.8345C84.3035 21.9302 83.9301 21.9207 83.5279 21.8058C83.1257 21.6908 82.8193 21.4897 82.6086 21.2025C82.4554 20.9726 82.3788 20.7428 82.3788 20.513C82.3788 20.2832 82.4171 20.0629 82.4937 19.8523C82.5894 19.6224 82.7043 19.4022 82.8384 19.1915C82.9725 18.9809 83.1161 18.7893 83.2693 18.617C83.8439 17.9467 84.428 17.3146 85.0217 16.7209C85.6346 16.1081 86.2666 15.5144 86.9178 14.9398C87.1284 14.7674 87.3678 14.5376 87.6359 14.2503C87.9041 13.9439 88.1531 13.6471 88.3829 13.3598C88.651 13.0151 88.9287 12.6703 89.216 12.3256C89.216 11.9809 89.2256 11.6361 89.2447 11.2914C89.2639 11.0041 89.2734 10.6881 89.2734 10.3434C89.2926 9.99864 89.3213 9.6922 89.3596 9.42408C89.3979 9.07935 89.4841 8.75376 89.6182 8.44733C89.7522 8.1409 89.8959 7.91108 90.0491 7.75787C90.2981 7.52804 90.6332 7.38441 91.0546 7.32695C91.4759 7.25034 91.8398 7.25992 92.1462 7.35568C92.5867 7.48974 92.9027 7.71956 93.0942 8.04515C93.3049 8.37073 93.4294 8.75376 93.4677 9.19426C93.4868 9.36662 93.4964 9.60602 93.4964 9.91245C93.5156 10.2189 93.5347 10.5349 93.5539 10.8605C93.5922 11.1669 93.6305 11.4638 93.6688 11.751C93.7262 12.0383 93.8124 12.2586 93.9273 12.4118C94.0806 12.6416 94.2242 12.8618 94.3583 13.0725C94.5115 13.2832 94.6838 13.4938 94.8754 13.7045C95.5457 14.4514 96.2064 15.2079 96.8576 15.974C97.5087 16.7209 98.1791 17.4583 98.8685 18.1861C99.0983 18.4159 99.3186 18.7032 99.5293 19.0479C99.7399 19.3926 99.8836 19.7469 99.9602 20.1108C100.056 20.4555 100.046 20.7907 99.9314 21.1163C99.8357 21.4227 99.5867 21.6717 99.1845 21.8632C98.8972 21.9973 98.6195 22.0547 98.3514 22.0356C98.0833 21.9973 97.8247 21.9207 97.5758 21.8058C97.3268 21.6717 97.0874 21.5089 96.8576 21.3174C96.6469 21.1259 96.4554 20.9343 96.283 20.7428L91.4567 16.1751L87.521 19.7948ZM83.2406 28.0971C82.9342 28.078 82.6277 28.0397 82.3213 27.9822C82.034 27.9056 81.7755 27.8099 81.5457 27.695C81.3158 27.5609 81.1243 27.3789 80.9711 27.1491C80.837 26.9193 80.77 26.6129 80.77 26.2298C80.77 25.8468 80.8945 25.5116 81.1435 25.2244C81.2967 25.0711 81.4882 24.9562 81.718 24.8796C81.9478 24.803 82.1681 24.7456 82.3788 24.7073C82.5894 24.669 82.7714 24.6498 82.9246 24.6498C83.097 24.6498 83.1927 24.6498 83.2119 24.6498L98.926 24.6785C99.4239 24.6785 99.874 24.6881 100.276 24.7073C100.698 24.7073 101.071 24.8413 101.397 25.1095C101.799 25.4733 102 25.8851 102 26.3447C102 26.632 101.914 26.9001 101.741 27.1491C101.569 27.3789 101.339 27.5417 101.052 27.6375C100.669 27.7907 100.267 27.896 99.8453 27.9535C99.4431 28.011 99.0409 28.0493 98.6387 28.0684C97.2406 28.1259 95.8617 28.145 94.5019 28.1259C93.1421 28.1067 91.8206 28.0971 90.5375 28.0971C89.1585 28.0971 87.8083 28.1067 86.4868 28.1259C85.1845 28.145 84.1024 28.1354 83.2406 28.0971Z" fill="white"/>
<defs>
<clipPath id="clip0_435_2250">
<rect width="28.1248" height="25.5578" fill="white" transform="translate(0 5.77441)"/>
</clipPath>
</defs>
</svg>
